<svg width="512" height="512" viewBox="0 0 512 512" fill="none" xmlns="http://www.w3.org/2000/svg">
<path d="M130.344 129.778C102.919 147.564 97.5318 203.162 107.885 248.476C115.949 283.764 133.093 331.099 162.002 375.674C189.198 417.607 227.14 455.206 256.071 476.96C293.222 504.894 346.183 522.648 373.608 504.862C387.476 495.868 408.078 471.295 409.018 466.886C409.018 466.886 396.936 448.257 394.285 444.17L353.769 381.7C350.758 377.058 331.877 381.301 322.285 386.734C309.347 394.065 297.431 413.735 297.431 413.735C288.559 418.86 281.129 413.754 265.603 406.609C246.522 397.83 225.068 370.551 207.994 345.844C192.399 320.178 176.241 289.464 176.006 268.462C175.814 251.372 174.182 242.505 182.479 236.495C182.479 236.495 205.299 233.637 217.269 224.814C226.141 218.272 237.716 202.763 234.705 198.121L194.19 135.651C191.539 131.563 179.457 112.935 179.457 112.935C175.05 111.994 144.211 120.784 130.344 129.778Z" fill="#4B4B4B"/>
<path d="M360.036 176.391C376.524 109.19 337.349 40.47 271.123 20.421L276.715 0C354.203 23.14 400.023 103.517 380.457 181.983L360.036 176.391Z" fill="#4B4B4B"/>
<path d="M315.781 164.273C325.626 121.471 300.851 78.011 259.005 64.677L264.599 44.249C317.705 60.684 349.123 115.797 336.209 169.867L315.781 164.273Z" fill="#4B4B4B"/>
<path d="M271.466 152.138C274.754 133.765 264.355 115.522 246.87 108.991L252.475 88.5234C281.199 98.2174 298.226 128.087 291.934 157.743L271.466 152.138Z" fill="#4B4B4B"/>
</svg>
